<svg width="64" height="64" viewBox="0 0 64 64" fill="none" xmlns="http://www.w3.org/2000/svg">
<path d="M56.0601 53.9409L39.5201 37.3909C39.2358 37.1259 38.8597 36.9817 38.4711 36.9885C38.0825 36.9954 37.7117 37.1528 37.4369 37.4276C37.1621 37.7024 37.0046 38.0732 36.9978 38.4618C36.9909 38.8504 37.1352 39.2265 37.4001 39.5109L53.9401 56.0609C54.2245 56.3258 54.6006 56.4701 54.9892 56.4632C55.3778 56.4564 55.7486 56.2989 56.0234 56.0241C56.2982 55.7493 56.4556 55.3785 56.4625 54.9899C56.4693 54.6013 56.3251 54.2252 56.0601 53.9409V53.9409Z" fill="black"></path>
<path d="M26.25 13.5C22.8693 13.5026 19.6278 14.8468 17.2373 17.2373C14.8468 19.6278 13.5026 22.8693 13.5 26.25C13.5 26.6478 13.658 27.0294 13.9393 27.3107C14.2206 27.592 14.6022 27.75 15 27.75C15.3978 27.75 15.7794 27.592 16.0607 27.3107C16.342 27.0294 16.5 26.6478 16.5 26.25C16.5026 23.665 17.5307 21.1865 19.3586 19.3586C21.1865 17.5307 23.665 16.5026 26.25 16.5C26.6478 16.5 27.0294 16.342 27.3107 16.0607C27.592 15.7794 27.75 15.3978 27.75 15C27.75 14.6022 27.592 14.2206 27.3107 13.9393C27.0294 13.658 26.6478 13.5 26.25 13.5Z" fill="black"></path>
<path d="M26.25 45C22.5416 45 18.9165 43.9003 15.8331 41.8401C12.7496 39.7798 10.3464 36.8514 8.92727 33.4253C7.50812 29.9992 7.13681 26.2292 7.86028 22.5921C8.58376 18.9549 10.3695 15.614 12.9918 12.9918C15.614 10.3695 18.9549 8.58376 22.5921 7.86028C26.2292 7.13681 29.9992 7.50812 33.4253 8.92727C36.8514 10.3464 39.7798 12.7496 41.8401 15.8331C43.9003 18.9165 45 22.5416 45 26.25C44.9947 31.2212 43.0176 35.9873 39.5024 39.5024C35.9873 43.0176 31.2212 44.9947 26.25 45V45ZM26.25 10.5C23.135 10.5 20.0899 11.4237 17.4998 13.1544C14.9097 14.885 12.891 17.3448 11.6989 20.2227C10.5068 23.1007 10.1949 26.2675 10.8026 29.3227C11.4104 32.3779 12.9104 35.1843 15.1131 37.3869C17.3158 39.5896 20.1221 41.0897 23.1773 41.6974C26.2325 42.3051 29.3993 41.9932 32.2773 40.8011C35.1552 39.609 37.615 37.5903 39.3457 35.0002C41.0763 32.4102 42 29.3651 42 26.25C41.9947 22.0745 40.3336 18.0715 37.3811 15.1189C34.4285 12.1664 30.4255 10.5053 26.25 10.5V10.5Z" fill="#FF931E"></path>
</svg>